<svg width="30" height="30" viewBox="0 0 30 30" fill="none" xmlns="http://www.w3.org/2000/svg">
<path fill-rule="evenodd" clip-rule="evenodd" d="M15 0C15.4973 0 15.9742 0.197544 16.3258 0.549175C16.6775 0.900805 16.875 1.37772 16.875 1.875V3.75C16.875 4.24728 16.6775 4.72419 16.3258 5.07582C15.9742 5.42746 15.4973 5.625 15 5.625C14.5027 5.625 14.0258 5.42746 13.6742 5.07582C13.3225 4.72419 13.125 4.24728 13.125 3.75V1.875C13.125 1.37772 13.3225 0.900805 13.6742 0.549175C14.0258 0.197544 14.5027 0 15 0ZM22.5 15C22.5 16.9891 21.7098 18.8968 20.3033 20.3033C18.8968 21.7098 16.9891 22.5 15 22.5C13.0109 22.5 11.1032 21.7098 9.6967 20.3033C8.29018 18.8968 7.5 16.9891 7.5 15C7.5 13.0109 8.29018 11.1032 9.6967 9.6967C11.1032 8.29018 13.0109 7.5 15 7.5C16.9891 7.5 18.8968 8.29018 20.3033 9.6967C21.7098 11.1032 22.5 13.0109 22.5 15ZM21.63 24.2812L22.9556 25.6069C23.3093 25.9484 23.7829 26.1374 24.2745 26.1331C24.7661 26.1289 25.2364 25.9317 25.584 25.584C25.9317 25.2364 26.1289 24.7661 26.1331 24.2745C26.1374 23.7829 25.9484 23.3093 25.6069 22.9556L24.2812 21.63C23.9276 21.2885 23.454 21.0995 22.9624 21.1037C22.4708 21.108 22.0005 21.3052 21.6528 21.6528C21.3052 22.0005 21.108 22.4708 21.1037 22.9624C21.0995 23.454 21.2885 23.9276 21.63 24.2812ZM25.605 4.39313C25.9565 4.74474 26.154 5.22157 26.154 5.71875C26.154 6.21593 25.9565 6.69276 25.605 7.04437L24.2812 8.37C24.1083 8.54908 23.9014 8.69192 23.6726 8.79019C23.4439 8.88846 23.1978 8.94018 22.9489 8.94234C22.6999 8.94451 22.453 8.89707 22.2226 8.80279C21.9922 8.70851 21.7828 8.56929 21.6068 8.39324C21.4307 8.21719 21.2915 8.00784 21.1972 7.77741C21.1029 7.54698 21.0555 7.30008 21.0577 7.05112C21.0598 6.80216 21.1115 6.55612 21.2098 6.32737C21.3081 6.09861 21.4509 5.89171 21.63 5.71875L22.9556 4.39313C23.3072 4.04162 23.7841 3.84415 24.2812 3.84415C24.7784 3.84415 25.2534 4.04162 25.605 4.39313ZM28.125 16.875C28.6223 16.875 29.0992 16.6775 29.4508 16.3258C29.8025 15.9742 30 15.4973 30 15C30 14.5027 29.8025 14.0258 29.4508 13.6742C29.0992 13.3225 28.6223 13.125 28.125 13.125H26.25C25.7527 13.125 25.2758 13.3225 24.9242 13.6742C24.5725 14.0258 24.375 14.5027 24.375 15C24.375 15.4973 24.5725 15.9742 24.9242 16.3258C25.2758 16.6775 25.7527 16.875 26.25 16.875H28.125ZM15 24.375C15.4973 24.375 15.9742 24.5725 16.3258 24.9242C16.6775 25.2758 16.875 25.7527 16.875 26.25V28.125C16.875 28.6223 16.6775 29.0992 16.3258 29.4508C15.9742 29.8025 15.4973 30 15 30C14.5027 30 14.0258 29.8025 13.6742 29.4508C13.3225 29.0992 13.125 28.6223 13.125 28.125V26.25C13.125 25.7527 13.3225 25.2758 13.6742 24.9242C14.0258 24.5725 14.5027 24.375 15 24.375ZM5.71875 8.37C5.89283 8.54421 6.09953 8.68242 6.32702 8.77675C6.55452 8.87107 6.79837 8.91967 7.04465 8.91975C7.29093 8.91984 7.53481 8.87142 7.76238 8.77725C7.98994 8.68309 8.19673 8.54502 8.37094 8.37094C8.54514 8.19685 8.68336 7.99016 8.77768 7.76266C8.87201 7.53517 8.9206 7.29132 8.92069 7.04504C8.92078 6.79876 8.87236 6.55488 8.77819 6.32731C8.68402 6.09975 8.54596 5.89296 8.37188 5.71875L7.04437 4.39313C6.69075 4.05158 6.21712 3.86259 5.7255 3.86686C5.23388 3.87113 4.76361 4.06832 4.41596 4.41596C4.06832 4.76361 3.87113 5.23388 3.86686 5.7255C3.86259 6.21712 4.05158 6.69075 4.39313 7.04437L5.71875 8.37ZM8.37 24.2812L7.04437 25.6069C6.69075 25.9484 6.21712 26.1374 5.7255 26.1331C5.23388 26.1289 4.76361 25.9317 4.41596 25.584C4.06832 25.2364 3.87113 24.7661 3.86686 24.2745C3.86259 23.7829 4.05158 23.3093 4.39313 22.9556L5.71875 21.63C6.07238 21.2885 6.54601 21.0995 7.03763 21.1037C7.52925 21.108 7.99952 21.3052 8.34716 21.6528C8.6948 22.0005 8.89199 22.4708 8.89626 22.9624C8.90054 23.454 8.71155 23.9276 8.37 24.2812ZM3.75 16.875C4.24728 16.875 4.72419 16.6775 5.07582 16.3258C5.42746 15.9742 5.625 15.4973 5.625 15C5.625 14.5027 5.42746 14.0258 5.07582 13.6742C4.72419 13.3225 4.24728 13.125 3.75 13.125H1.875C1.37772 13.125 0.900805 13.3225 0.549175 13.6742C0.197544 14.0258 0 14.5027 0 15C0 15.4973 0.197544 15.9742 0.549175 16.3258C0.900805 16.6775 1.37772 16.875 1.875 16.875H3.75Z" fill="white"/>
</svg>
