<svg width="50" height="50" viewBox="0 0 50 50" fill="none" xmlns="http://www.w3.org/2000/svg">
<rect y="50" width="50" height="50" rx="25" transform="rotate(-90 0 50)" fill="white"/>
<path d="M32.55 25.56C33.465 25.56 34.3425 25.914 34.9895 26.5441C35.6365 27.1742 36 28.0289 36 28.92V30.04C36 34.455 31.722 39 24.5 39C17.278 39 13 34.455 13 30.04V28.92C13 28.0289 13.3635 27.1742 14.0105 26.5441C14.6575 25.914 15.535 25.56 16.45 25.56H32.55ZM24.5 11C26.1775 11 27.7863 11.649 28.9725 12.8042C30.1586 13.9594 30.825 15.5263 30.825 17.16C30.825 18.7937 30.1586 20.3606 28.9725 21.5158C27.7863 22.671 26.1775 23.32 24.5 23.32C22.8225 23.32 21.2137 22.671 20.0275 21.5158C18.8414 20.3606 18.175 18.7937 18.175 17.16C18.175 15.5263 18.8414 13.9594 20.0275 12.8042C21.2137 11.649 22.8225 11 24.5 11Z" fill="black"/>
</svg>
